<?xml version="1.0" encoding="UTF-8"?>
<!DOCTYPE svg PUBLIC "-//W3C//DTD SVG 1.1//EN" "http://www.w3.org/Graphics/SVG/1.1/DTD/svg11.dtd">
<!-- Creator: CorelDRAW 2017 -->
<svg xmlns="http://www.w3.org/2000/svg" xml:space="preserve" width="408px" height="456px" version="1.1" style="shape-rendering:geometricPrecision; text-rendering:geometricPrecision; image-rendering:optimizeQuality; fill-rule:evenodd; clip-rule:evenodd"
viewBox="0 0 407.03 455.05"
 xmlns:xlink="http://www.w3.org/1999/xlink">
 <defs>
  <style type="text/css">
   <![CDATA[
    .str0 {stroke:#E67300;stroke-width:1.96;stroke-linecap:round;stroke-linejoin:round;stroke-miterlimit:10}
    .fil2 {fill:none}
    .fil0 {fill:#43291B}
    .fil1 {fill:#E67300}
   ]]>
  </style>
 </defs>
 <g id="Layer_x0020_1">
  <metadata id="CorelCorpID_0Corel-Layer"/>
  <path class="fil0" d="M172.83 2.42c0,0 -62.66,17.33 -23.71,97.89 6.83,14.12 24.18,27.64 18.83,44.2 -7.2,22.29 -36.18,22.89 -54.9,21.33 -3.91,-0.32 -20.19,-2.92 -23.48,-0.16 -4.84,4.04 -0.62,24.38 -0.61,30.21 0.03,14.6 -0.39,57.28 -1.28,72.11 -0.77,12.91 -7.75,41.09 -15.29,61.14 -4.1,10.9 -9.17,21.16 -15.02,31.21 -1.9,3.25 -3.81,6.49 -5.84,9.66 -0.65,1.03 -1.32,2.04 -1.97,3.06 -0.35,0.56 -1.7,1.78 -1.06,1.66 3.18,-0.57 7.15,-4.58 9.68,-6.57 9.06,-7.17 16.97,-15.56 24.03,-24.73 22.08,-28.69 31.11,-75.06 36.03,-110.33 1.78,-12.8 1.13,-34.39 5.73,-46.03 1.84,-4.65 13.44,-5.51 17.45,-6.7 11.43,-3.39 20.55,-7.59 31.41,-12.62 27.18,-12.58 48.89,-30.62 58.74,-59.23 5.67,-16.46 11.45,-46.21 8.62,-63.8 -7.28,-45.21 -50.25,-48.6 -67.36,-42.3z"/>
  <path class="fil1" d="M29.37 360.44c-9.63,9.1 -19.98,33.46 -0.95,38.21 2.5,0.62 5.12,0.79 7.68,0.59 21.64,-1.7 47.41,-18 62.65,-32.54 10.81,-10.32 15.29,-23.71 22.14,-36.75 30.79,-58.61 45.98,-83.75 63.56,-106.32 12,-15.4 27.8,-40.13 42.47,-53.06 16.97,-14.96 56.86,-30.27 82.65,-5.6 10.43,9.98 15.22,31.98 -8.04,27.84 -25.17,-4.49 -39.74,-3.13 -45.77,-0.16 -19.8,9.75 -31.73,32.35 -49.29,57.79 -25.31,36.67 -29.86,46.83 -50.48,76.21 -10.46,14.9 -50.81,72.62 -46.73,77.6 3.1,3.79 40.07,-45.64 52.79,-63.68 12.71,-18.04 27.67,-33.72 40.73,-51.53 20.54,-28.02 55.04,-69.66 70.6,-77.38 19.89,-9.88 43.7,-14.86 62.96,-2.09 8.14,5.4 12.88,26.31 0.19,32.47 -10.41,5.05 -19.08,-0.85 -28.78,-4.7 -9.21,-3.66 -20.2,-5.34 -29.81,-2.21 -15.18,4.95 -26.79,18.66 -37.3,30.03 -24.73,26.74 -44.64,54.12 -68.24,81.86 -12.49,14.69 -28.28,31.81 -55.79,66.93 -2.31,2.94 6.32,3.4 58.59,-56.53 9.37,-10.74 39.76,-45.94 49.69,-56.13 110.21,-113.1 134.61,-12.87 123.18,-5.18 -21.85,14.72 -35.11,-30.83 -63.73,-22.59 -15.79,4.55 -50.06,45.8 -80.68,79.15 -16.1,17.54 -33.25,40.12 -42.34,49.95 -14.83,16.04 -16.93,22.64 -36.14,33.89 -20.28,11.87 -39.87,15.94 -63.15,16.14 -34.41,0.29 -69.29,-32.91 -59.33,-69.68 2.47,-9.15 7.97,-19.07 16.29,-23.99 3.3,-1.95 8.78,-3.87 11.89,-0.31l-1.51 1.77z"/>
  <path class="fil2 str0" d="M29.37 360.44c-9.63,9.1 -19.98,33.46 -0.95,38.21 2.5,0.62 5.12,0.79 7.68,0.59 21.64,-1.7 47.41,-18 62.65,-32.54 10.81,-10.32 15.29,-23.71 22.14,-36.75 30.79,-58.61 45.98,-83.75 63.56,-106.32 12,-15.4 27.8,-40.13 42.47,-53.06 16.97,-14.96 56.86,-30.27 82.65,-5.6 10.43,9.98 15.22,31.98 -8.04,27.84 -25.17,-4.49 -39.74,-3.13 -45.77,-0.16 -19.8,9.75 -31.73,32.35 -49.29,57.79 -25.31,36.67 -29.86,46.83 -50.48,76.21 -10.46,14.9 -50.81,72.62 -46.73,77.6 3.1,3.79 40.07,-45.64 52.79,-63.68 12.71,-18.04 27.67,-33.72 40.73,-51.53 20.54,-28.02 55.04,-69.66 70.6,-77.38 19.89,-9.88 43.7,-14.86 62.96,-2.09 8.14,5.4 12.88,26.31 0.19,32.47 -10.41,5.05 -19.08,-0.85 -28.78,-4.7 -9.21,-3.66 -20.2,-5.34 -29.81,-2.21 -15.18,4.95 -26.79,18.66 -37.3,30.03 -24.73,26.74 -44.64,54.12 -68.24,81.86 -12.49,14.69 -28.28,31.81 -55.79,66.93 -2.31,2.94 6.32,3.4 58.59,-56.53 9.37,-10.74 39.76,-45.94 49.69,-56.13 110.21,-113.1 134.61,-12.87 123.18,-5.18 -21.85,14.72 -35.11,-30.83 -63.73,-22.59 -15.79,4.55 -50.06,45.8 -80.68,79.15 -16.1,17.54 -33.25,40.12 -42.34,49.95 -14.83,16.04 -16.93,22.64 -36.14,33.89 -20.28,11.87 -39.87,15.94 -63.15,16.14 -34.41,0.29 -69.29,-32.91 -59.33,-69.68 2.47,-9.15 7.97,-19.07 16.29,-23.99 3.3,-1.95 8.78,-3.87 11.89,-0.31"/>
  <path class="fil0" d="M167.6 450.99c0,0 33.9,-38.1 42.54,-48.59 20.82,-25.26 49,-50.53 79.87,-63.69 19.28,-8.22 46.04,-14.5 66.35,-10.39 39.12,7.92 58.62,45.87 47.63,80.31 -4.93,15.46 -11.93,30.39 -26.05,37.5 -19.75,9.94 -38.67,10.72 -60.35,6.52 -22.85,-4.42 -34.2,-36.25 -60.45,-37.19 -17.4,-0.62 -31.89,-1.77 -89.54,35.53z"/>
 </g>
</svg>
